<svg xmlns="http://www.w3.org/2000/svg" viewBox="0 0 80 80"><defs><style>.cls-1{fill:none;stroke:#000;stroke-linecap:round;stroke-linejoin:round;stroke-width:1.5px;}</style></defs><title>signature</title><g id="Signature"><path id="A" class="cls-1" d="M15.61,78.05c.44-28,24.33-79.55,23.56-61.89S34,58.5,41.39,56.94s15.33-14.78,1.89-10.22S-7.94,62.5,13.5,50.83s46.11-23.56,21.89-8.22S14.39,55.28,9,59.5s-11.22,11.33,3,1S62,21.16,74.06,13.72"/><path id="Hpt1" class="cls-1" d="M50.5,22.61c-9.89,5.88-8.11,3.88-4.11-2.33S54.84,7.17,57.84,2c0,0-3.56,39.33-2.67,50.78"/><path id="Hpt2" class="cls-1" d="M66,3.5c-.2,15.91-1.89,59.22,11,34.33"/></g></svg>